# xmcd
#
# Track frame offsets: 
#        150
#        12232
#        23580
#        36912
#        49670
#        60843
#        73422
#        85082
#        97014
#        110802
#        123493
#        135232
#        146338
#        159047
#        169362
#        182050
#        194028
#        206619
#        218290
#        229970
#        242017
#        253478
#        264079
#        278018
#        292260
#        304227
#        314737
#
# Disc length: 4316 seconds
#
# Revision: 0
# Processed by: cddbd v1.5.2PL0 Copyright (c) Steve Scherf et al.
# Submitted via: ExactAudioCopy v0.95b4
#
DISCID=8f10da1b
DTITLE=Ray Charles - The Way I Feel 1 [Confession Blues]
DYEAR=2007
DGENRE=Blues
TTITLE0=I Love You, I Love You [I Will Never Let You Go]
TTITLE1=Confession Blues
TTITLE2=Alone In The City
TTITLE3=Can Anyone Ask For More?
TTITLE4=Here I Am
TTITLE5=Rockin' Chair Blues
TTITLE6=If I Give You My Love
TTITLE7=Can't You See, Darling?
TTITLE8=This Love Of Mine
TTITLE9=Blues Before Sunrise
TTITLE10=How Long Blues
TTITLE11=A Sentimental Blues
TTITLE12=You'll Never Miss The Water [Until The Well Runs Dry]
TTITLE13=Ain't That Fine
TTITLE14=Don't Put All Your Dreams In One Basket
TTITLE15=Sitting On Top Of The World
TTITLE16=I've Had My Fun [Going Down Slow]
TTITLE17=See See Rider
TTITLE18=What Have I Done?
TTITLE19=Honey, Honey
TTITLE20=She's On The Ball
TTITLE21=Th' Ego Song
TTITLE22=Late In The Evening Blues
TTITLE23=Someday
TTITLE24=I'll Do Anything But Work
TTITLE25=I Wonder Who's Kissing Her Now?
TTITLE26=All To Myself
EXTD=
EXTT0=
EXTT1=
EXTT2=
EXTT3=
EXTT4=
EXTT5=
EXTT6=
EXTT7=
EXTT8=
EXTT9=
EXTT10=
EXTT11=
EXTT12=
EXTT13=
EXTT14=
EXTT15=
EXTT16=
EXTT17=
EXTT18=
EXTT19=
EXTT20=
EXTT21=
EXTT22=
EXTT23=
EXTT24=
EXTT25=
EXTT26=
PLAYORDER=
